<?xml version="1.0" encoding="UTF-8"?><svg xmlns="http://www.w3.org/2000/svg" width="960" height="640" viewBox="0 0 960 640"><defs><style>text{font-family:Inter,system-ui,sans-serif;font-size:14px;fill:#1a1a1a} .edge{stroke:#3a3a3a;stroke-width:1.5;fill:none} .node-fill{fill:#ffffff;stroke:#2b5fa6;stroke-width:1.25} .label{font-size:11px;fill:#5a5a5a} .arrow-sync-end{marker-end:url(#arrow-sync)} .arrow-async-end{marker-end:url(#arrow-async)} .arrow-return-end{marker-end:url(#arrow-return)}</style><marker id="arrow-sync" viewBox="0 0 10 10" refX="9" refY="5" markerWidth="8" markerHeight="8" orient="auto-start-reverse"><path d="M0,0 L10,5 L0,10 z" fill="#3a3a3a"/></marker><marker id="arrow-async" viewBox="0 0 10 10" refX="9" refY="5" markerWidth="10" markerHeight="10" orient="auto-start-reverse"><path d="M0,0 L10,5 L0,10" fill="none" stroke="#3a3a3a" stroke-width="1.5"/></marker><marker id="arrow-return" viewBox="0 0 10 10" refX="9" refY="5" markerWidth="10" markerHeight="10" orient="auto-start-reverse"><path d="M10,0 L0,5 L10,10" fill="none" stroke="#3a3a3a" stroke-width="1.5"/></marker></defs><rect x="0" y="0" width="960" height="640" fill="#fdfdfd"/><g id="zoom"><text x="480" y="18" text-anchor="middle" font-weight="600" fill="#1a1a1a">User login</text><rect class="node-fill" x="-20" y="24" width="88" height="32" rx="4" ry="4"/><text x="24" y="45" text-anchor="middle" fill="#1a1a1a">Database</text><line class="edge" x1="24" y1="56" x2="24" y2="216" stroke-dasharray="6 4"/><rect class="node-fill" x="396" y="24" width="168" height="32" rx="4" ry="4"/><text x="480" y="45" text-anchor="middle" fill="#1a1a1a">Application server</text><line class="edge" x1="480" y1="56" x2="480" y2="216" stroke-dasharray="6 4"/><rect class="node-fill" x="906" y="24" width="60" height="32" rx="4" ry="4"/><text x="936" y="45" text-anchor="middle" fill="#1a1a1a">User</text><line class="edge" x1="936" y1="56" x2="936" y2="216" stroke-dasharray="6 4"/><line class="edge arrow-sync-end" x1="936" y1="72" x2="480" y2="72"/><text x="930" y="66" text-anchor="end" class="label">POST /login</text><line class="edge arrow-async-end" x1="480" y1="100" x2="24" y2="100"/><text x="474" y="94" text-anchor="end" class="label">query user</text><line class="edge arrow-return-end" x1="24" y1="128" x2="480" y2="128" stroke-dasharray="6 4"/><text x="30" y="122" text-anchor="start" class="label">user record</text><line class="edge arrow-return-end" x1="480" y1="156" x2="936" y2="156" stroke-dasharray="6 4"/><text x="486" y="150" text-anchor="start" class="label">200 OK</text></g></svg>