<?xml version="1.0" encoding="UTF-8"?><svg xmlns="http://www.w3.org/2000/svg" width="960" height="640" viewBox="0 0 960 640"><defs><style>text{font-family:Inter,system-ui,sans-serif;font-size:14px;fill:#1a1a1a} .edge{stroke:#3a3a3a;stroke-width:1.5;fill:none} .node-fill{fill:#ffffff;stroke:#2b5fa6;stroke-width:1.25} .label{font-size:11px;fill:#5a5a5a} .arrow-sync-end{marker-end:url(#arrow-sync)} .arrow-async-end{marker-end:url(#arrow-async)} .arrow-return-end{marker-end:url(#arrow-return)}</style><marker id="arrow-sync" viewBox="0 0 10 10" refX="9" refY="5" markerWidth="8" markerHeight="8" orient="auto-start-reverse"><path d="M0,0 L10,5 L0,10 z" fill="#3a3a3a"/></marker><marker id="arrow-async" viewBox="0 0 10 10" refX="9" refY="5" markerWidth="10" markerHeight="10" orient="auto-start-reverse"><path d="M0,0 L10,5 L0,10" fill="none" stroke="#3a3a3a" stroke-width="1.5"/></marker><marker id="arrow-return" viewBox="0 0 10 10" refX="9" refY="5" markerWidth="10" markerHeight="10" orient="auto-start-reverse"><path d="M10,0 L0,5 L10,10" fill="none" stroke="#3a3a3a" stroke-width="1.5"/></marker></defs><rect x="0" y="0" width="960" height="640" fill="#fdfdfd"/><g id="zoom"><text x="480" y="18" text-anchor="middle" font-weight="600" fill="#1a1a1a">DiagramForge pipeline</text><polyline class="edge arrow-sync-end" points="316,480 316,504 316,504 316,336 316,360"/><text x="322" y="500" class="label">text input</text><polyline class="edge arrow-sync-end" points="316,396 316,420 196,420 196,252 196,276"/><text x="202" y="416" class="label">DSL</text><polyline class="edge arrow-sync-end" points="316,396 316,420 424,420 424,252 424,276"/><text x="430" y="416" class="label">prose</text><polyline class="edge arrow-sync-end" points="196,312 196,336 236,336 236,168 236,192"/><text x="242" y="332" class="label">produces</text><polyline class="edge arrow-sync-end" points="424,312 424,336 236,336 236,168 236,192"/><text x="242" y="332" class="label">produces</text><polyline class="edge arrow-sync-end" points="236,228 236,252 316,252 316,84 316,108"/><text x="322" y="248" class="label">typed IR</text><polyline class="edge arrow-sync-end" points="316,144 316,168 88,168 88,0 88,24"/><text x="94" y="164" class="label">layout pass</text><polyline class="edge arrow-sync-end" points="316,144 316,168 236,168 236,0 236,24"/><text x="242" y="164" class="label">emit</text><polyline class="edge arrow-sync-end" points="316,144 316,168 388,168 388,0 388,24"/><text x="394" y="164" class="label">emit</text><polyline class="edge arrow-sync-end" points="316,144 316,168 548,168 548,0 548,24"/><text x="554" y="164" class="label">emit</text><polyline class="edge arrow-sync-end" points="404,228 404,252 316,252 316,84 316,108"/><text x="322" y="248" class="label">colors</text><path class="node-fill" d="M 232 444 h 168 v 36 h -168 z"/><text x="316" y="467" text-anchor="middle" fill="#1a1a1a">AI agent text spec</text><path class="node-fill" d="M 316 360 L 380 378 L 316 396 L 252 378 z"/><text x="316" y="383" text-anchor="middle" fill="#1a1a1a">DSL or prose?</text><path class="node-fill" d="M 104 276 h 184 v 36 h -184 z"/><text x="196" y="299" text-anchor="middle" fill="#1a1a1a">parse_spec DSL route</text><path class="node-fill" d="M 320 276 h 208 v 36 h -208 z"/><text x="424" y="299" text-anchor="middle" fill="#1a1a1a">parse_spec LLM fallback</text><path class="node-fill" d="M 164 192 h 144 v 36 h -144 z"/><text x="236" y="215" text-anchor="middle" fill="#1a1a1a">DiagramIR typed</text><path class="node-fill" d="M 248 108 h 136 v 36 h -136 z"/><text x="316" y="131" text-anchor="middle" fill="#1a1a1a">render_diagram</text><path class="node-fill" d="M 24 24 h 128 v 36 h -128 z"/><text x="88" y="47" text-anchor="middle" fill="#1a1a1a">layout engine</text><path class="node-fill" d="M 184 24 h 104 v 36 h -104 z"/><text x="236" y="47" text-anchor="middle" fill="#1a1a1a">SVG output</text><path class="node-fill" d="M 320 24 h 136 v 36 h -136 z"/><text x="388" y="47" text-anchor="middle" fill="#1a1a1a">Mermaid output</text><path class="node-fill" d="M 488 24 h 120 v 36 h -120 z"/><text x="548" y="47" text-anchor="middle" fill="#1a1a1a">HTML preview</text><path class="node-fill" d="M 340 192 h 128 v 36 h -128 z"/><text x="404" y="215" text-anchor="middle" fill="#1a1a1a">theme presets</text></g></svg>