<?xml version="1.0" encoding="UTF-8"?><svg xmlns="http://www.w3.org/2000/svg" width="960" height="640" viewBox="0 0 960 640"><defs><style>text{font-family:Inter,system-ui,sans-serif;font-size:14px;fill:#1a1a1a} .edge{stroke:#3a3a3a;stroke-width:1.5;fill:none} .node-fill{fill:#ffffff;stroke:#2b5fa6;stroke-width:1.25} .label{font-size:11px;fill:#5a5a5a} .arrow-sync-end{marker-end:url(#arrow-sync)} .arrow-async-end{marker-end:url(#arrow-async)} .arrow-return-end{marker-end:url(#arrow-return)}</style><marker id="arrow-sync" viewBox="0 0 10 10" refX="9" refY="5" markerWidth="8" markerHeight="8" orient="auto-start-reverse"><path d="M0,0 L10,5 L0,10 z" fill="#3a3a3a"/></marker><marker id="arrow-async" viewBox="0 0 10 10" refX="9" refY="5" markerWidth="10" markerHeight="10" orient="auto-start-reverse"><path d="M0,0 L10,5 L0,10" fill="none" stroke="#3a3a3a" stroke-width="1.5"/></marker><marker id="arrow-return" viewBox="0 0 10 10" refX="9" refY="5" markerWidth="10" markerHeight="10" orient="auto-start-reverse"><path d="M10,0 L0,5 L10,10" fill="none" stroke="#3a3a3a" stroke-width="1.5"/></marker></defs><rect x="0" y="0" width="960" height="640" fill="#fdfdfd"/><g id="zoom"><text x="480" y="18" text-anchor="middle" font-weight="600" fill="#1a1a1a">Order processing</text><polyline class="edge arrow-sync-end" points="106,228 106,252 106,252 106,84 106,108"/><polyline class="edge arrow-sync-end" points="106,144 106,168 54,168 54,0 54,24"/><text x="60" y="164" class="label">yes</text><polyline class="edge arrow-sync-end" points="106,144 106,168 152,168 152,0 152,24"/><text x="158" y="164" class="label">no</text><path class="node-fill" d="M 74 192 h 64 v 36 h -64 z"/><text x="106" y="215" text-anchor="middle" fill="#1a1a1a">Start</text><path class="node-fill" d="M 106 108 L 142 126 L 106 144 L 70 126 z"/><text x="106" y="131" text-anchor="middle" fill="#1a1a1a">Decide</text><path class="node-fill" d="M 24 24 h 60 v 36 h -60 z"/><text x="54" y="47" text-anchor="middle" fill="#1a1a1a">Pay</text><path class="node-fill" d="M 116 24 h 72 v 36 h -72 z"/><text x="152" y="47" text-anchor="middle" fill="#1a1a1a">Cancel</text></g></svg>